<svg width="38" height="38" viewBox="0 0 38 38" fill="none" xmlns="http://www.w3.org/2000/svg">
<path d="M19.2201 3.3487C24.2343 3.3487 24.8286 3.36795 26.8085 3.45689C27.9995 3.47121 29.1792 3.68764 30.2962 4.09676C31.106 4.40623 31.8414 4.87991 32.4552 5.48736C33.069 6.09482 33.5476 6.82262 33.8603 7.62402C34.2737 8.72948 34.4924 9.89694 34.5069 11.0756C34.5968 13.035 34.6162 13.6231 34.6162 18.5854C34.6162 23.5478 34.5968 24.1359 34.5069 26.0953C34.4924 27.274 34.2737 28.4414 33.8603 29.5469C33.5476 30.3483 33.069 31.0761 32.4552 31.6835C31.8414 32.291 31.106 32.7647 30.2962 33.0741C29.1792 33.4833 27.9995 33.6997 26.8085 33.714C24.8286 33.8029 24.235 33.8222 19.2201 33.8222C14.2052 33.8222 13.6117 33.8029 11.6317 33.714C10.4408 33.6997 9.26108 33.4833 8.14406 33.0741C7.33428 32.7647 6.59886 32.291 5.98506 31.6835C5.37125 31.0761 4.89262 30.3483 4.57992 29.5469C4.16651 28.4414 3.94782 27.274 3.93335 26.0953C3.84348 24.1359 3.82403 23.5478 3.82403 18.5854C3.82403 13.6231 3.84348 13.035 3.93335 11.0756C3.94782 9.89694 4.16651 8.72948 4.57992 7.62402C4.89262 6.82262 5.37125 6.09482 5.98506 5.48736C6.59886 4.87991 7.33428 4.40623 8.14406 4.09676C9.26108 3.68764 10.4408 3.47121 11.6317 3.45689C13.6117 3.36795 14.2059 3.3487 19.2201 3.3487ZM19.2201 0C14.1227 0 13.4802 0.0212407 11.4775 0.111513C9.91884 0.141856 8.37669 0.433626 6.91666 0.974408C5.66951 1.45252 4.53696 2.18306 3.59153 3.11929C2.64609 4.05551 1.90859 5.17678 1.42625 6.41132C0.87981 7.85624 0.584988 9.38242 0.554328 10.9249C0.46177 12.9049 0.440308 13.5408 0.440308 18.5854C0.440308 23.6301 0.46177 24.266 0.552987 26.248C0.583647 27.7905 0.878468 29.3167 1.42491 30.7616C1.90763 31.9961 2.64551 33.1172 3.59129 34.0532C4.53708 34.9892 5.66994 35.7194 6.91733 36.1972C8.37736 36.7379 9.91951 37.0297 11.4781 37.06C13.4802 37.1497 14.1227 37.1709 19.2201 37.1709C24.3175 37.1709 24.96 37.1497 26.9628 37.0594C28.5214 37.029 30.0636 36.7373 31.5236 36.1965C32.771 35.7188 33.9038 34.9885 34.8496 34.0525C35.7954 33.1165 36.5333 31.9954 37.016 30.7609C37.5624 29.316 37.8573 27.7898 37.8879 26.2473C37.9785 24.266 37.9999 23.6301 37.9999 18.5854C37.9999 13.5408 37.9785 12.9049 37.8873 10.9229C37.8566 9.38043 37.5618 7.85425 37.0153 6.40932C36.5322 5.17508 35.794 4.05426 34.848 3.11861C33.902 2.18295 32.769 1.45309 31.5216 0.975736C30.0615 0.434953 28.5194 0.143183 26.9608 0.11284C24.96 0.0212406 24.3175 0 19.2201 0Z" fill="#FCA311"/>
<path d="M19.2202 9.04185C17.3129 9.04185 15.4485 9.60158 13.8626 10.6502C12.2768 11.6989 11.0407 13.1894 10.3108 14.9333C9.58096 16.6772 9.38999 18.5961 9.76208 20.4474C10.1342 22.2986 11.0526 23.9991 12.4013 25.3338C13.7499 26.6685 15.4682 27.5775 17.3389 27.9457C19.2095 28.314 21.1485 28.125 22.9106 27.4026C24.6727 26.6803 26.1788 25.4571 27.2384 23.8876C28.2981 22.3182 28.8637 20.473 28.8637 18.5855C28.8637 16.0544 27.8477 13.6269 26.0392 11.8371C24.2307 10.0473 21.7778 9.04185 19.2202 9.04185ZM19.2202 24.7804C17.9822 24.7804 16.7719 24.4171 15.7425 23.7364C14.7131 23.0557 13.9108 22.0882 13.437 20.9562C12.9632 19.8242 12.8393 18.5786 13.0808 17.3769C13.3223 16.1752 13.9185 15.0714 14.7939 14.205C15.6694 13.3386 16.7847 12.7486 17.999 12.5096C19.2133 12.2706 20.4719 12.3932 21.6157 12.8621C22.7595 13.331 23.7372 14.125 24.425 15.1438C25.1128 16.1625 25.4799 17.3602 25.4799 18.5855C25.48 19.399 25.3182 20.2046 25.0036 20.9563C24.6891 21.7079 24.228 22.3909 23.6467 22.9662C23.0654 23.5414 22.3753 23.9977 21.6158 24.309C20.8563 24.6203 20.0423 24.7805 19.2202 24.7804V24.7804Z" fill="#FCA311"/>
<path d="M29.2445 10.8951C30.4892 10.8951 31.4981 9.89657 31.4981 8.66484C31.4981 7.4331 30.4892 6.43459 29.2445 6.43459C27.9999 6.43459 26.991 7.4331 26.991 8.66484C26.991 9.89657 27.9999 10.8951 29.2445 10.8951Z" fill="#FCA311"/>
</svg>
