<svg width="200" height="37" viewBox="0 0 200 37" fill="none" xmlns="http://www.w3.org/2000/svg">
<path d="M16.9503 2.93742C17.347 2.01632 18.653 2.01632 19.0497 2.93742L22.5985 11.1781C22.7639 11.5623 23.126 11.8254 23.5426 11.864L32.4765 12.6926C33.4751 12.7852 33.8787 14.0273 33.1253 14.6892L26.3846 20.6108C26.0703 20.8869 25.932 21.3126 26.024 21.7207L27.9967 30.4734C28.2171 31.4518 27.1606 32.2194 26.2983 31.7074L18.5835 27.1265C18.2238 26.9129 17.7762 26.9129 17.4165 27.1265L9.70174 31.7074C8.83942 32.2194 7.78285 31.4518 8.00335 30.4734L9.97605 21.7207C10.068 21.3126 9.9297 20.8869 9.61543 20.6108L2.87474 14.6892C2.1213 14.0273 2.52487 12.7852 3.52347 12.6926L12.4574 11.864C12.874 11.8254 13.2361 11.5623 13.4015 11.1781L16.9503 2.93742Z" fill="white"/>
<path d="M57.9503 2.93742C58.347 2.01632 59.653 2.01632 60.0497 2.93742L63.5985 11.1781C63.7639 11.5623 64.126 11.8254 64.5426 11.864L73.4765 12.6926C74.4751 12.7852 74.8787 14.0273 74.1253 14.6892L67.3846 20.6108C67.0703 20.8869 66.932 21.3126 67.024 21.7207L68.9967 30.4734C69.2171 31.4518 68.1606 32.2194 67.2983 31.7074L59.5835 27.1265C59.2238 26.9129 58.7762 26.9129 58.4165 27.1265L50.7017 31.7074C49.8394 32.2194 48.7829 31.4518 49.0034 30.4734L50.976 21.7207C51.068 21.3126 50.9297 20.8869 50.6154 20.6108L43.8747 14.6892C43.1213 14.0273 43.5249 12.7852 44.5235 12.6926L53.4574 11.864C53.874 11.8254 54.2361 11.5623 54.4015 11.1781L57.9503 2.93742Z" fill="white"/>
<path d="M98.9503 2.93742C99.347 2.01632 100.653 2.01632 101.05 2.93742L104.598 11.1781C104.764 11.5623 105.126 11.8254 105.543 11.864L114.477 12.6926C115.475 12.7852 115.879 14.0273 115.125 14.6892L108.385 20.6108C108.07 20.8869 107.932 21.3126 108.024 21.7207L109.997 30.4734C110.217 31.4518 109.161 32.2194 108.298 31.7074L100.583 27.1265C100.224 26.9129 99.7762 26.9129 99.4165 27.1265L91.7017 31.7074C90.8394 32.2194 89.7829 31.4518 90.0034 30.4734L91.976 21.7207C92.068 21.3126 91.9297 20.8869 91.6154 20.6108L84.8747 14.6892C84.1213 14.0273 84.5249 12.7852 85.5235 12.6926L94.4574 11.864C94.874 11.8254 95.2361 11.5623 95.4015 11.1781L98.9503 2.93742Z" fill="white"/>
<path d="M139.95 2.93742C140.347 2.01632 141.653 2.01632 142.05 2.93742L145.598 11.1781C145.764 11.5623 146.126 11.8254 146.543 11.864L155.477 12.6926C156.475 12.7852 156.879 14.0273 156.125 14.6892L149.385 20.6108C149.07 20.8869 148.932 21.3126 149.024 21.7207L150.997 30.4734C151.217 31.4518 150.161 32.2194 149.298 31.7074L141.583 27.1265C141.224 26.9129 140.776 26.9129 140.417 27.1265L132.702 31.7074C131.839 32.2194 130.783 31.4518 131.003 30.4734L132.976 21.7207C133.068 21.3126 132.93 20.8869 132.615 20.6108L125.875 14.6892C125.121 14.0273 125.525 12.7852 126.523 12.6926L135.457 11.864C135.874 11.8254 136.236 11.5623 136.402 11.1781L139.95 2.93742Z" fill="white"/>
<path d="M180.95 2.93742C181.347 2.01632 182.653 2.01632 183.05 2.93742L186.598 11.1781C186.764 11.5623 187.126 11.8254 187.543 11.864L196.477 12.6926C197.475 12.7852 197.879 14.0273 197.125 14.6892L190.385 20.6108C190.07 20.8869 189.932 21.3126 190.024 21.7207L191.997 30.4734C192.217 31.4518 191.161 32.2194 190.298 31.7074L182.583 27.1265C182.224 26.9129 181.776 26.9129 181.417 27.1265L173.702 31.7074C172.839 32.2194 171.783 31.4518 172.003 30.4734L173.976 21.7207C174.068 21.3126 173.93 20.8869 173.615 20.6108L166.875 14.6892C166.121 14.0273 166.525 12.7852 167.523 12.6926L176.457 11.864C176.874 11.8254 177.236 11.5623 177.402 11.1781L180.95 2.93742Z" fill="white"/>
</svg>
